<svg id="eLxAGKNeJaO1" xmlns="http://www.w3.org/2000/svg" xmlns:xlink="http://www.w3.org/1999/xlink" viewBox="0 0 96 96" shape-rendering="geometricPrecision" text-rendering="geometricPrecision"><style><![CDATA[#eLxAGKNeJaO2_tr {animation: eLxAGKNeJaO2_tr__tr 3000ms linear infinite normal forwards}@keyframes eLxAGKNeJaO2_tr__tr { 0% {transform: translate(0px,96px) rotate(180deg);animation-timing-function: cubic-bezier(1,0.01,0,0.995)} 100% {transform: translate(0px,96px) rotate(540deg)}}]]></style><g id="eLxAGKNeJaO2_tr" transform="translate(0,96) rotate(180)"><g id="eLxAGKNeJaO2" transform="scale(-0.1,0.1) translate(0,0)"><ellipse id="eLxAGKNeJaO3" rx="45.328469" ry="45.15" transform="matrix(10.434328 0 0 9.914263 477.402725 494.94455)" fill="rgb(251,168,36)" stroke="none" stroke-width="0"/><path id="eLxAGKNeJaO4" d="M366,944C233,912,107,810,50,688C-127,307,240,-96,639,41C777,89,881,195,930,339C957,419,957,545,931,629C858,864,609,1003,366,944ZM579,909C797,859,949,634,911,419C849,66,422,-72,170,180C3,348,-3,604,157,781C257,891,429,944,579,909Z" fill="rgb(0,0,0)" stroke="none" stroke-width="1"/><path id="eLxAGKNeJaO5" d="M364,749C345,724,340,699,350,679C359,663,372,660,433,660C564,660,564,659,370,458C220,301,201,278,209,258C214,243,227,234,244,232C267,229,293,252,437,399C528,493,606,567,611,564C616,561,620,529,620,492C620,415,636,376,668,372C712,365,720,384,720,499C720,578,716,611,705,626C696,638,693,657,696,676C703,714,681,735,643,727C626,724,609,727,600,735C577,756,378,767,364,749Z" fill="rgb(0,0,0)" stroke="none" stroke-width="1"/></g></g></svg>